<svg width="24" height="24" viewBox="0 0 24 24" fill="none" xmlns="http://www.w3.org/2000/svg">
<path d="M6.15712 1.46015C5.87118 1.04465 5.30297 0.939699 4.88807 1.22531C4.25568 1.65998 3.75834 2.12507 3.36717 2.64646C3.06815 3.04523 3.14451 3.6104 3.5384 3.91551C3.70448 4.04418 3.90131 4.10653 4.09659 4.10653C4.36457 4.10653 4.62984 3.9891 4.80961 3.76401C5.11898 3.3771 5.51409 3.00965 5.922 2.7292C6.17962 2.55215 6.31771 2.26621 6.31771 1.97573C6.31771 1.79779 6.2654 1.61803 6.15712 1.46015Z" fill="black"/>
<path d="M21.8507 4.65858C21.2487 2.70998 19.8534 1.22283 18.1278 0.683531C15.8993 -0.0397969 13.944 0.423469 12.57 1.04522C11.4881 0.367734 10.1959 0 8.87273 0C7.43184 0 6.05386 0.423703 4.88794 1.22527C4.33645 1.60458 3.82298 2.08003 3.402 2.60198C3.35334 2.65795 3.31715 2.71209 3.28945 2.75925C2.30512 4.04897 1.78528 5.5763 1.78528 7.17872C1.78528 8.88853 2.39123 10.5418 3.49298 11.8394C3.52036 11.8796 3.55106 11.9225 3.58209 11.966C3.61434 12.0113 3.64659 12.056 3.67242 12.0949C3.68184 12.1089 3.69159 12.1226 3.70162 12.136C4.11286 12.6844 4.52109 14.7781 4.69537 15.6721C4.74131 15.9082 4.78176 16.1156 4.81462 16.2698C4.90101 16.7017 4.9889 17.1687 5.04609 17.6553C5.23743 19.3143 5.5574 20.6701 5.9924 21.6733C6.59742 23.1255 7.44881 23.9069 8.52319 23.9963C8.54845 23.9984 8.574 23.9996 8.59922 23.9996H8.7209C10.0532 23.9996 10.7936 22.4669 11.3423 20.9672C11.3469 20.9544 11.3512 20.942 11.3551 20.9292L12.1056 18.5609L12.838 20.9237C12.8426 20.9383 12.8472 20.9529 12.8526 20.9675C13.3692 22.3793 14.1342 24 15.4738 24H15.5955C15.6217 24 15.6481 23.9988 15.6743 23.9967C16.4129 23.9325 17.4507 23.4774 18.2011 21.6761C18.609 20.7024 18.9096 19.4303 19.1477 17.6581C19.2055 17.1684 19.2934 16.7021 19.3777 16.2808C19.4124 16.1166 19.4528 15.9097 19.4988 15.6742C19.6728 14.7796 20.081 12.6854 20.4962 12.1318C22.1321 9.91697 22.6373 7.11998 21.8507 4.65858ZM19.0321 11.0415C18.4207 11.8576 18.0563 13.533 17.7074 15.3247C17.6636 15.5489 17.6253 15.7457 17.5903 15.9118C17.4963 16.3802 17.4005 16.8903 17.3369 17.4296C17.1228 19.0236 16.8627 20.1484 16.5172 20.9722C16.223 21.6785 15.8613 22.1241 15.5441 22.1749H15.5422C15.4437 22.0997 15.0839 21.7484 14.5743 20.3617L13.2426 16.0645C13.2375 16.0475 13.2316 16.0307 13.2256 16.0143C13.0492 15.5434 12.612 15.2395 12.1123 15.2395C11.6125 15.2395 11.1757 15.5434 10.9993 16.0143C10.9938 16.0286 10.9886 16.0435 10.9837 16.0587L9.621 20.3589C9.09872 21.7813 8.75925 22.1073 8.66494 22.1749H8.64731C8.21292 22.1107 7.854 21.3974 7.67179 20.96C7.30828 20.1217 7.02722 18.9067 6.8587 17.4445C6.79359 16.8918 6.69778 16.3814 6.60169 15.902C6.56883 15.7457 6.5302 15.5482 6.48642 15.3234C6.14058 13.5479 5.7795 11.8862 5.17753 11.0631C5.14467 11.0144 5.10576 10.9603 5.06709 10.9058C5.03517 10.8611 5.0032 10.8167 4.97765 10.7783C4.95698 10.7473 4.93448 10.7178 4.91011 10.6895C4.07208 9.71611 3.61036 8.46928 3.61036 7.17863C3.61036 5.97952 4.00092 4.83488 4.7407 3.86578C4.7827 3.81619 4.81462 3.76875 4.83989 3.72647C5.14467 3.35353 5.52736 3.00038 5.92218 2.72906C6.78244 2.13773 7.80262 1.82503 8.87273 1.82503C9.99942 1.82503 11.0893 2.18062 11.9413 2.82581C12.2245 3.04055 12.6066 3.07097 12.9193 2.90489C13.9848 2.34122 15.6548 1.79948 17.5739 2.42184C18.7529 2.79052 19.6761 3.80161 20.1098 5.20509C20.7213 7.11848 20.317 9.3022 19.0321 11.0415Z" fill="#25282B"/>
</svg>
