<svg width="24" height="24" viewBox="0 0 24 24" fill="none" xmlns="http://www.w3.org/2000/svg">
<g clip-path="url(#clip0_10_108)">
<path d="M20.3827 7.94404L16.0557 3.61701C15.7608 3.3224 15.2838 3.32217 14.989 3.6165L3.84436 14.736L4.91053 15.8047L15.5216 5.21751L18.7824 8.47865L8.19552 19.0894L9.26394 20.1556L20.3834 9.01072C20.6775 8.71583 20.6773 8.23836 20.3827 7.94404Z" fill="#25282B"/>
<path d="M21.6659 3.3909L20.6093 2.33429C20.3633 2.08824 19.9814 2.04221 19.6841 2.22282L16.0363 4.43668L16.8194 5.727L19.9608 3.82032L20.1796 4.03941L18.2732 7.18078L19.5635 7.96392L21.7774 4.31611C21.958 4.01883 21.9119 3.63666 21.6659 3.3909Z" fill="#25282B"/>
<path d="M10.6721 20.498L3.50228 13.3282C3.20767 13.0333 2.72968 13.0333 2.43512 13.3282C2.14028 13.6228 2.14028 14.1007 2.43512 14.3953L9.60492 21.5651C9.75211 21.7125 9.94528 21.7862 10.1385 21.7862C10.3314 21.7862 10.5249 21.7125 10.6721 21.5651C10.9669 21.2705 10.9669 20.7926 10.6721 20.498Z" fill="#25282B"/>
<path d="M10.4836 13.9073L3.44019 20.9766L4.50929 22.0418L11.5527 14.9724L10.4836 13.9073Z" fill="#25282B"/>
<path d="M9.00066 12.4242L1.95728 19.4935L3.02638 20.5587L10.0698 13.4894L9.00066 12.4242Z" fill="#25282B"/>
<path d="M6.26951 22.7117L1.28839 17.7303C0.993549 17.4357 0.515566 17.4353 0.220957 17.7303C-0.0736522 18.025 -0.0736522 18.5027 0.220957 18.7975L5.20207 23.7789C5.34949 23.9263 5.54271 24 5.73588 24C5.92882 24 6.12232 23.9263 6.26946 23.7789C6.56412 23.4843 6.56412 23.0066 6.26951 22.7117Z" fill="#25282B"/>
<path d="M23.779 0.221224C23.4841 -0.0736193 23.0066 -0.0736193 22.7118 0.221224L20.0703 2.86272C19.7754 3.15733 19.7754 3.63531 20.0703 3.92987C20.2177 4.07729 20.4106 4.15098 20.6038 4.15098C20.797 4.15098 20.9902 4.07725 21.1374 3.92987L23.7789 1.28838C24.0738 0.993816 24.0738 0.515833 23.779 0.221224Z" fill="#25282B"/>
<path d="M8.75982 10.9879L7.6925 12.0552L11.9439 16.3066L13.0113 15.2393L8.75982 10.9879Z" fill="#25282B"/>
</g>
<defs>
<clipPath id="clip0_10_108">
<rect width="24" height="24" fill="white"/>
</clipPath>
</defs>
</svg>
