<svg width="24" height="24" viewBox="0 0 24 24" fill="none" xmlns="http://www.w3.org/2000/svg">
<path d="M17.5743 0H6.45305C5.99804 0 5.62927 0.368766 5.62927 0.823781V4.86038C5.62927 5.31539 5.99804 5.68416 6.45305 5.68416H17.5743C18.0293 5.68416 18.3981 5.31539 18.3981 4.86038V0.823781C18.3981 0.368766 18.0293 0 17.5743 0ZM16.7506 4.03659H7.27683V1.64761H16.7505V4.03659H16.7506Z" fill="#25282B"/>
<path d="M16.3936 4.88803H14.746V8.6775H16.3936V4.88803Z" fill="#25282B"/>
<path d="M9.25405 4.88803H7.60645V8.6775H9.25405V4.88803Z" fill="#25282B"/>
<path d="M17.9863 7.85352H6.01376C5.25668 7.85352 4.64075 8.46945 4.64075 9.22653V22.627C4.64075 23.3841 5.25668 24 6.01376 24H17.9863C18.7434 24 19.3593 23.3841 19.3593 22.627V9.22653C19.3593 8.46945 18.7434 7.85352 17.9863 7.85352ZM17.7117 22.3524H6.28836V9.50112H17.7117V22.3524Z" fill="#25282B"/>
<path d="M11.9999 12.1647C11.5449 12.1647 11.1761 12.5335 11.1761 12.9885V18.8649C11.1761 19.3199 11.5449 19.6887 11.9999 19.6887C12.4549 19.6887 12.8237 19.3199 12.8237 18.8649V12.9885C12.8237 12.5335 12.4549 12.1647 11.9999 12.1647Z" fill="#25282B"/>
<path d="M14.9383 15.103H9.06182C8.6068 15.103 8.23804 15.4718 8.23804 15.9268C8.23804 16.3818 8.6068 16.7506 9.06182 16.7506H14.9383C15.3935 16.7506 15.762 16.3818 15.762 15.9268C15.762 15.4718 15.3933 15.103 14.9383 15.103Z" fill="#25282B"/>
</svg>
