<svg width="24" height="24" viewBox="0 0 24 24" fill="none" xmlns="http://www.w3.org/2000/svg">
<g clip-path="url(#clip0_10_57)">
<path d="M22.9939 15.0476C22.973 15.0196 22.9504 14.9934 22.9262 14.9684C22.2285 14.096 20.9673 13.9208 20.0878 14.5809C18.8203 15.5151 16.6519 17.0871 15.9281 17.6117L12.7665 17.3638L14.7009 16.9404C15.7371 16.7897 16.4799 15.8754 16.435 14.7962C16.4348 14.7848 16.434 14.7733 16.4329 14.7622C16.3431 13.6838 15.4669 12.8708 14.395 12.8708H8.5447C8.06934 12.8708 7.62581 12.9924 7.22635 13.2321C7.21031 13.2419 7.19452 13.252 7.179 13.2629L0.94772 17.6166C0.578204 17.8749 0.487876 18.384 0.746064 18.7532C1.00402 19.123 1.51341 19.2136 1.88264 18.9548L8.08781 14.6193C8.22605 14.5412 8.37572 14.5028 8.54494 14.5028H14.3953C14.6124 14.5028 14.7784 14.6574 14.8045 14.8805C14.8065 15.0769 14.7006 15.2952 14.4573 15.3256C14.4329 15.3286 14.4083 15.3327 14.3841 15.3382L10.9011 16.1001C10.6293 16.1596 10.4064 16.3534 10.3098 16.6143C10.2132 16.8756 10.2562 17.1678 10.4241 17.3898L11.3493 18.6143C11.49 18.8007 11.7038 18.918 11.9368 18.9362L16.1 19.2627C16.2927 19.2766 16.4856 19.2235 16.6423 19.1101C16.6709 19.0894 19.5202 17.0271 21.0616 15.891C21.2377 15.7591 21.5177 15.8091 21.66 15.9996C21.6758 16.0205 21.6927 16.0409 21.7103 16.06C21.82 16.2393 21.7781 16.4693 21.6042 16.5996L16.0824 20.7616C15.9199 20.8832 15.7507 20.9295 15.5572 20.9039L7.50277 19.8971C7.28292 19.8697 7.06195 19.9325 6.88945 20.0713L3.81464 22.5477C3.46336 22.8307 3.40809 23.3447 3.69085 23.6957C3.85195 23.896 4.08839 24 4.32703 24C4.50689 24 4.68783 23.9409 4.83835 23.8198L7.64353 21.5605L15.3478 22.5235C15.9622 22.6054 16.5543 22.4478 17.0629 22.0669L22.5856 17.905C23.4859 17.2296 23.6691 15.948 22.9939 15.0476Z" fill="#25282B"/>
<path d="M15.7278 2.83002C15.2769 2.83002 14.9115 3.19545 14.9115 3.64635V8.54431C14.9115 8.9952 15.2769 9.36064 15.7278 9.36064C16.1787 9.36064 16.5442 8.9952 16.5442 8.54431V3.64635C16.5442 3.19545 16.1787 2.83002 15.7278 2.83002Z" fill="#25282B"/>
<path d="M18.1768 5.27878H13.2789C12.828 5.27878 12.4625 5.64422 12.4625 6.0951C12.4625 6.54599 12.828 6.91143 13.2789 6.91143H18.1768C18.6277 6.91143 18.9931 6.54599 18.9931 6.0951C18.9931 5.64422 18.6277 5.27878 18.1768 5.27878Z" fill="#25282B"/>
<path d="M15.7278 0C12.3667 0 9.63281 2.73417 9.63281 6.09525C9.63281 9.45633 12.3667 12.1905 15.7278 12.1905C19.0886 12.1905 21.823 9.45638 21.823 6.09525C21.823 2.73412 19.0889 0 15.7278 0ZM15.7278 10.5578C13.2671 10.5578 11.2655 8.55595 11.2655 6.09525C11.2655 3.63455 13.2671 1.63266 15.7278 1.63266C18.1884 1.63266 20.1904 3.63455 20.1904 6.09525C20.1904 8.55595 18.1885 10.5578 15.7278 10.5578Z" fill="#25282B"/>
</g>
<defs>
<clipPath id="clip0_10_57">
<rect width="24" height="24" fill="white"/>
</clipPath>
</defs>
</svg>
