<svg width="24" height="24" viewBox="0 0 24 24" fill="none" xmlns="http://www.w3.org/2000/svg">
<path d="M21.8899 3.34127C20.6794 2.1176 19.0443 1.4411 17.2856 1.43613C15.4754 1.43008 13.6613 2.11596 12.2079 3.33522C10.5548 1.87952 9.0595 1.16974 7.65143 1.16974C5.68493 1.16974 3.86041 1.94425 2.52639 3.33827C1.52374 4.34093 0.836737 5.65736 0.53894 7.14551C0.449784 7.59274 0.739565 8.0276 1.18685 8.11708C1.63357 8.20572 2.06894 7.91646 2.15842 7.46918C2.39182 6.30194 2.92272 5.27725 3.70661 4.49313C4.73871 3.41477 6.13989 2.8211 7.65147 2.8211C8.74661 2.8211 10.0732 3.559 11.5804 4.9998C11.7494 5.16963 11.9715 5.26347 12.2057 5.26375C12.206 5.26375 12.2066 5.26375 12.2068 5.26375C12.4405 5.26375 12.6626 5.17047 12.8318 5.00121C14.0486 3.78443 15.6642 3.08754 17.2661 3.08754C17.2713 3.08754 17.2762 3.08754 17.2812 3.08754C18.6161 3.0911 19.804 3.58075 20.7067 4.49313C21.7658 5.59929 22.349 7.0481 22.349 8.57341C22.349 10.0998 21.7526 11.5847 20.7293 12.6311L12.2202 20.8566L5.47296 14.3375C5.14516 14.0207 4.6225 14.0303 4.30544 14.3573C3.98866 14.6854 3.99775 15.2081 4.32555 15.5248L11.6466 22.5982C11.8065 22.7529 12.0135 22.8303 12.2202 22.8303C12.4269 22.8303 12.6339 22.7529 12.794 22.5985L21.8931 13.8022C23.2321 12.4335 24 10.5278 24 8.57336C24 6.6206 23.2539 4.76585 21.8899 3.34127Z" fill="#25282B"/>
<path d="M22.5138 10.4726H15.8532C15.6259 10.4726 15.409 10.5658 15.2532 10.731L12.7494 13.3784L9.86559 6.8368C9.74175 6.55578 9.47203 6.36669 9.1657 6.34606C8.86102 6.32651 8.56683 6.47652 8.40633 6.73826L6.11588 10.4726H0.825703C0.369609 10.4726 0 10.8422 0 11.2983C0 11.7544 0.369609 12.124 0.825703 12.124H6.57773C6.8648 12.124 7.13152 11.9748 7.28152 11.7298L8.99016 8.94453L11.74 15.1818C11.8515 15.435 12.0824 15.6153 12.3548 15.6623C12.4016 15.6703 12.4487 15.6744 12.4955 15.6744C12.7206 15.6744 12.9383 15.5825 13.0955 15.4162L16.2089 12.1239H22.5138C22.9699 12.1239 23.3395 11.7543 23.3395 11.2982C23.3394 10.8422 22.9698 10.4726 22.5138 10.4726Z" fill="#25282B"/>
</svg>
