<svg width="24" height="24" viewBox="0 0 24 24" fill="none" xmlns="http://www.w3.org/2000/svg">
<g clip-path="url(#clip0_10_133)">
<path d="M18.7817 12.9832V21.5799H5.21866V12.8067H3.70605V22.3361C3.70605 22.7539 4.04463 23.0924 4.46234 23.0924H19.538C19.9557 23.0924 20.2943 22.7538 20.2943 22.3361V12.9832H18.7817Z" fill="#25282B"/>
<path d="M23.9976 11.5615C23.981 11.3533 23.8789 11.1612 23.7155 11.0308L12.4718 2.05602C12.1955 1.83566 11.804 1.83566 11.5282 2.05602L0.284496 11.0308C0.121137 11.1612 0.0190428 11.3533 0.00240221 11.5615C-0.0142384 11.7697 0.056121 11.9757 0.196512 12.1303L2.44023 14.6008C2.58897 14.7647 2.79418 14.8487 3.00039 14.8487C3.16651 14.8487 3.3339 14.794 3.47284 14.6828L12.0002 7.85136L20.527 14.6828C20.8393 14.9319 21.2913 14.897 21.5598 14.6008L23.8035 12.1303C23.9442 11.9757 24.0143 11.7697 23.9976 11.5615ZM20.918 13.0575L12.4728 6.29211C12.3349 6.18144 12.1675 6.12599 12.0002 6.12599C11.8328 6.12599 11.6654 6.18144 11.5272 6.29211L3.08181 13.0575L1.85814 11.71L12.0002 3.61452L22.1419 11.71L20.918 13.0575Z" fill="#25282B"/>
<path d="M19.0086 0.907684H16.0335C15.6158 0.907684 15.2772 1.24626 15.2772 1.66397V5.9497H16.7898V2.42025H18.2523V8.21854H19.7649V1.66397C19.7649 1.24622 19.4263 0.907684 19.0086 0.907684Z" fill="#25282B"/>
<path d="M12.0002 12.9831C11.5824 12.9831 11.2439 13.3217 11.2439 13.7394V18.8319C11.2439 19.2496 11.5825 19.5881 12.0002 19.5881C12.4179 19.5881 12.7562 19.2496 12.7565 18.8319V13.7394C12.7565 13.3217 12.4179 12.9831 12.0002 12.9831Z" fill="#25282B"/>
<path d="M14.5463 15.5293H9.45391C9.03616 15.5293 8.69763 15.8679 8.69763 16.2856C8.69763 16.7033 9.03621 17.0419 9.45391 17.0419H14.5464C14.9641 17.0419 15.3026 16.7033 15.3026 16.2856C15.3026 15.8679 14.9641 15.5293 14.5463 15.5293Z" fill="#25282B"/>
</g>
<defs>
<clipPath id="clip0_10_133">
<rect width="24" height="24" fill="white"/>
</clipPath>
</defs>
</svg>
