<svg width="24" height="24" viewBox="0 0 24 24" fill="none" xmlns="http://www.w3.org/2000/svg">
<g clip-path="url(#clip0_10_77)">
<path d="M22.4112 14.8076L9.16236 1.55866C7.08742 -0.515998 3.68421 -0.518716 1.56985 1.55866C-0.523282 3.65179 -0.523282 7.05772 1.56985 9.15085L14.8188 22.3998C15.8654 23.4464 17.2399 23.9696 18.6149 23.9696C19.9895 23.9696 21.3644 23.4464 22.4113 22.4001C24.5041 20.3069 24.5041 16.9007 22.4112 14.8076ZM21.1252 21.1137C19.7408 22.4971 17.4888 22.4971 16.1048 21.1137L2.85625 7.86477C1.47221 6.48077 1.47221 4.22846 2.85048 2.85022C3.55113 2.16172 4.46614 1.8176 5.37749 1.8176C6.28613 1.8176 7.19111 2.15989 7.87628 2.84446L21.1252 16.0934C22.5089 17.4777 22.5089 19.7297 21.1252 21.1137Z" fill="#25282B"/>
<path d="M22.411 1.5878C21.4035 0.580353 20.0549 0.0252075 18.6148 0.0252075C17.1747 0.0252075 15.8262 0.580025 14.8187 1.5878L1.56985 14.8367C-0.523282 16.9299 -0.523282 20.3358 1.56985 22.4289C2.61644 23.4755 3.99101 23.9991 5.36596 23.9991C6.74091 23.9991 8.11549 23.4758 9.16175 22.4289L22.441 9.1497C23.4523 8.1386 24.0063 6.7928 23.9999 5.36029C23.9938 3.92834 23.4275 2.58648 22.411 1.5878ZM21.1552 7.86363L7.87595 21.1428C6.49163 22.5262 4.23964 22.5268 2.85592 21.1428C1.47221 19.7585 1.47221 17.5068 2.85592 16.1228L16.1048 2.87388C16.7961 2.18265 17.7041 1.83671 18.6127 1.83671C19.5235 1.83671 20.4352 2.18415 21.1306 2.87964C21.804 3.54148 22.1769 4.42527 22.1812 5.36812C22.1851 6.31163 21.8207 7.19781 21.1552 7.86363Z" fill="#25282B"/>
<path d="M10.2471 11.4477C9.88334 11.0839 9.24664 11.0839 8.88284 11.4477C8.51904 11.8115 8.51904 12.4482 8.88284 12.812C9.24664 13.1758 9.88334 13.1758 10.2471 12.812C10.6413 12.4178 10.6413 11.8115 10.2471 11.4477Z" fill="#25282B"/>
<path d="M10.352 11.338C9.93147 10.9196 9.19538 10.92 8.77547 11.3402C8.35495 11.761 8.35495 12.4986 8.77547 12.9191C8.9859 13.1292 9.2754 13.2344 9.56495 13.2344C9.8545 13.2344 10.144 13.1295 10.3541 12.9191C10.5794 12.6938 10.7001 12.4016 10.694 12.0966C10.6882 11.8065 10.5666 11.5372 10.352 11.338ZM10.1401 12.7048C9.83388 13.0107 9.29631 13.011 8.99012 12.7048C8.68392 12.3986 8.68392 11.861 8.99012 11.5548C9.14321 11.4018 9.35392 11.3253 9.56495 11.3253C9.77598 11.3253 9.98697 11.4018 10.1401 11.5548L10.1443 11.5591C10.2993 11.7019 10.3869 11.895 10.3911 12.103C10.3957 12.3246 10.3065 12.5383 10.1401 12.7048Z" fill="#25282B"/>
<path d="M12.5512 13.7517C12.1874 13.3879 11.5507 13.3879 11.1869 13.7517C10.8231 14.1155 10.8231 14.7522 11.1869 15.116C11.5507 15.4798 12.1874 15.4798 12.5512 15.116C12.9454 14.7521 12.9454 14.1155 12.5512 13.7517Z" fill="#25282B"/>
<path d="M12.6565 13.6423C12.4549 13.4419 12.1681 13.327 11.8692 13.327C11.569 13.327 11.2813 13.4425 11.0797 13.6444C10.8781 13.8463 10.7626 14.1337 10.7626 14.4339C10.7626 14.734 10.8778 15.0217 11.0797 15.2234C11.2816 15.425 11.5693 15.5408 11.8692 15.5408C12.169 15.5408 12.457 15.425 12.6541 15.227C12.873 15.0251 12.9985 14.7359 12.9985 14.4336C12.9985 14.1325 12.8739 13.8441 12.6565 13.6423ZM12.4443 15.0087C12.1381 15.3149 11.6008 15.3149 11.2943 15.0087C11.1491 14.8634 11.066 14.654 11.066 14.4338C11.066 14.2137 11.1491 14.0042 11.2943 13.859C11.4474 13.7059 11.6581 13.6292 11.8692 13.6292C12.0802 13.6292 12.2912 13.7059 12.4443 13.8587L12.4488 13.8629C12.6052 14.0079 12.6953 14.2161 12.6953 14.4338C12.6953 14.6515 12.6053 14.8598 12.4443 15.0087Z" fill="#25282B"/>
<path d="M12.8242 8.8706C12.4604 8.5068 11.8237 8.5068 11.4599 8.8706C11.0961 9.2344 11.0961 9.87111 11.4599 10.2349C11.8237 10.5987 12.4604 10.5987 12.8242 10.2349C13.188 9.87111 13.188 9.2344 12.8242 8.8706Z" fill="#25282B"/>
<path d="M12.9315 8.76314C12.5109 8.34262 11.773 8.34262 11.3525 8.76314C10.932 9.18366 10.932 9.9213 11.3525 10.3418C11.5626 10.5522 11.8521 10.6574 12.142 10.6574C12.4318 10.6574 12.7214 10.5522 12.9315 10.3418C13.3516 9.9213 13.3516 9.18366 12.9315 8.76314ZM12.7168 10.1278C12.426 10.4182 11.8573 10.4182 11.5669 10.1278C11.2607 9.82159 11.2607 9.28402 11.5669 8.97783C11.72 8.82474 11.931 8.74833 12.142 8.74833C12.353 8.74833 12.564 8.82474 12.7168 8.97783C13.023 9.28431 13.023 9.82155 12.7168 10.1278Z" fill="#25282B"/>
<path d="M15.1282 11.1746C14.7644 10.8108 14.1277 10.8108 13.7639 11.1746C13.4001 11.5384 13.4001 12.1751 13.7639 12.5389C14.1277 12.9027 14.7644 12.9027 15.1282 12.5389C15.5224 12.1751 15.5224 11.5687 15.1282 11.1746Z" fill="#25282B"/>
<path d="M15.2356 11.0674C15.0337 10.8658 14.7463 10.75 14.4462 10.75C14.146 10.75 13.8583 10.8655 13.6567 11.0674C13.4551 11.2694 13.3392 11.5568 13.3392 11.8569C13.3392 12.1571 13.4547 12.4448 13.6567 12.6464C13.8586 12.848 14.1463 12.9638 14.4462 12.9638C14.746 12.9638 15.034 12.848 15.2311 12.6501C15.4473 12.4506 15.5694 12.1804 15.5755 11.8894C15.5816 11.5847 15.4609 11.2927 15.2356 11.0674ZM15.0213 12.4318C14.7151 12.7379 14.1775 12.7379 13.8713 12.4318C13.7261 12.2865 13.6427 12.077 13.6427 11.8569C13.6427 11.6368 13.7261 11.4273 13.8713 11.2821C14.0241 11.129 14.2354 11.0523 14.4462 11.0523C14.6569 11.0523 14.8682 11.1289 15.0213 11.2818C15.1877 11.4479 15.2768 11.6616 15.2723 11.8833C15.2681 12.0913 15.1805 12.2847 15.0213 12.4318Z" fill="#25282B"/>
</g>
<defs>
<clipPath id="clip0_10_77">
<rect width="24" height="24" fill="white"/>
</clipPath>
</defs>
</svg>
