<svg width="71" height="10" viewBox="0 0 71 10" fill="none" xmlns="http://www.w3.org/2000/svg">
<path d="M0.87 8V0.835H3.155C3.595 0.835 3.97333 0.878333 4.29 0.965C4.61 1.05167 4.87167 1.175 5.075 1.335C5.28167 1.495 5.43333 1.69167 5.53 1.925C5.63 2.155 5.68 2.415 5.68 2.705C5.68 2.88167 5.65167 3.05167 5.595 3.215C5.54167 3.37833 5.45833 3.53 5.345 3.67C5.235 3.81 5.095 3.935 4.925 4.045C4.75833 4.155 4.56167 4.245 4.335 4.315C4.85833 4.41833 5.25333 4.60667 5.52 4.88C5.78667 5.15333 5.92 5.51333 5.92 5.96C5.92 6.26333 5.86333 6.54 5.75 6.79C5.64 7.04 5.47667 7.255 5.26 7.435C5.04667 7.615 4.78333 7.755 4.47 7.855C4.16 7.95167 3.805 8 3.405 8H0.87ZM1.84 4.735V7.23H3.39C3.66667 7.23 3.90333 7.19833 4.1 7.135C4.3 7.07167 4.46333 6.98333 4.59 6.87C4.72 6.75333 4.815 6.61667 4.875 6.46C4.935 6.3 4.965 6.125 4.965 5.935C4.965 5.565 4.83333 5.27333 4.57 5.06C4.31 4.84333 3.915 4.735 3.385 4.735H1.84ZM1.84 4.045H3.12C3.39333 4.045 3.63 4.015 3.83 3.955C4.03 3.895 4.195 3.81167 4.325 3.705C4.45833 3.59833 4.55667 3.47 4.62 3.32C4.68333 3.16667 4.715 3 4.715 2.82C4.715 2.4 4.58833 2.09167 4.335 1.895C4.08167 1.69833 3.68833 1.6 3.155 1.6H1.84V4.045ZM8.72961 9.495C8.69961 9.56167 8.66128 9.615 8.61461 9.655C8.57128 9.695 8.50294 9.715 8.40961 9.715H7.74961L8.67461 7.705L6.58461 2.935H7.35461C7.43128 2.935 7.49128 2.955 7.53461 2.995C7.57794 3.03167 7.60961 3.07333 7.62961 3.12L8.98461 6.31C9.01461 6.38333 9.03961 6.45667 9.05961 6.53C9.08294 6.60333 9.10294 6.67833 9.11961 6.755C9.14294 6.67833 9.16628 6.60333 9.18961 6.53C9.21294 6.45667 9.23961 6.38167 9.26961 6.305L10.5846 3.12C10.6046 3.06667 10.6379 3.02333 10.6846 2.99C10.7346 2.95333 10.7879 2.935 10.8446 2.935H11.5546L8.72961 9.495ZM15.5804 3.975H15.9454C16.0721 3.975 16.1721 3.96 16.2454 3.93C16.3221 3.89667 16.3937 3.84167 16.4604 3.765L18.8454 1.065C18.9187 0.981666 18.9887 0.923333 19.0554 0.89C19.1254 0.853333 19.2137 0.835 19.3204 0.835H20.1454L17.4154 3.92C17.3454 3.99667 17.2787 4.06167 17.2154 4.115C17.1554 4.16833 17.0904 4.21167 17.0204 4.245C17.1137 4.275 17.1954 4.32 17.2654 4.38C17.3354 4.44 17.4087 4.515 17.4854 4.605L20.3354 8H19.4954C19.4321 8 19.3787 7.995 19.3354 7.985C19.2921 7.975 19.2537 7.96167 19.2204 7.945C19.1904 7.92833 19.1621 7.90667 19.1354 7.88C19.1087 7.85333 19.0821 7.825 19.0554 7.795L16.5804 4.95C16.5437 4.91 16.5087 4.87667 16.4754 4.85C16.4454 4.82 16.4087 4.795 16.3654 4.775C16.3254 4.755 16.2771 4.74167 16.2204 4.735C16.1671 4.725 16.1004 4.72 16.0204 4.72H15.5804V8H14.6154V0.835H15.5804V3.975ZM22.212 2.935V8H21.322V2.935H22.212ZM22.412 1.345C22.412 1.43167 22.3937 1.51333 22.357 1.59C22.3237 1.66333 22.277 1.73 22.217 1.79C22.1604 1.84667 22.0937 1.89167 22.017 1.925C21.9404 1.95833 21.8587 1.975 21.772 1.975C21.6854 1.975 21.6037 1.95833 21.527 1.925C21.4537 1.89167 21.387 1.84667 21.327 1.79C21.2704 1.73 21.2254 1.66333 21.192 1.59C21.1587 1.51333 21.142 1.43167 21.142 1.345C21.142 1.25833 21.1587 1.17667 21.192 1.1C21.2254 1.02 21.2704 0.951666 21.327 0.894999C21.387 0.835 21.4537 0.788333 21.527 0.754999C21.6037 0.721666 21.6854 0.704999 21.772 0.704999C21.8587 0.704999 21.9404 0.721666 22.017 0.754999C22.0937 0.788333 22.1604 0.835 22.217 0.894999C22.277 0.951666 22.3237 1.02 22.357 1.1C22.3937 1.17667 22.412 1.25833 22.412 1.345ZM23.8206 8V2.935H24.3306C24.4273 2.935 24.494 2.95333 24.5306 2.99C24.5673 3.02667 24.5923 3.09 24.6056 3.18L24.6656 3.97C24.839 3.61667 25.0523 3.34167 25.3056 3.145C25.5623 2.945 25.8623 2.845 26.2056 2.845C26.3456 2.845 26.4723 2.86167 26.5856 2.895C26.699 2.925 26.804 2.96833 26.9006 3.025L26.7856 3.69C26.7623 3.77333 26.7106 3.815 26.6306 3.815C26.584 3.815 26.5123 3.8 26.4156 3.77C26.319 3.73667 26.184 3.72 26.0106 3.72C25.7006 3.72 25.4406 3.81 25.2306 3.99C25.024 4.17 24.8506 4.43167 24.7106 4.775V8H23.8206ZM31.4283 8H31.0333C30.9466 8 30.8766 7.98667 30.8233 7.96C30.7699 7.93333 30.7349 7.87667 30.7183 7.79L30.6183 7.32C30.4849 7.44 30.3549 7.54833 30.2283 7.645C30.1016 7.73833 29.9683 7.81833 29.8283 7.885C29.6883 7.94833 29.5383 7.99667 29.3783 8.03C29.2216 8.06333 29.0466 8.08 28.8533 8.08C28.6566 8.08 28.4716 8.05333 28.2983 8C28.1283 7.94333 27.9799 7.86 27.8533 7.75C27.7266 7.64 27.6249 7.50167 27.5483 7.335C27.4749 7.165 27.4383 6.965 27.4383 6.735C27.4383 6.535 27.4933 6.34333 27.6033 6.16C27.7133 5.97333 27.8899 5.80833 28.1333 5.665C28.3799 5.52167 28.7016 5.405 29.0983 5.315C29.4949 5.22167 29.9799 5.16833 30.5533 5.155V4.76C30.5533 4.36667 30.4683 4.07 30.2983 3.87C30.1316 3.66667 29.8833 3.565 29.5533 3.565C29.3366 3.565 29.1533 3.59333 29.0033 3.65C28.8566 3.70333 28.7283 3.765 28.6183 3.835C28.5116 3.90167 28.4183 3.96333 28.3383 4.02C28.2616 4.07333 28.1849 4.1 28.1083 4.1C28.0483 4.1 27.9949 4.085 27.9483 4.055C27.9049 4.02167 27.8699 3.98167 27.8433 3.935L27.6833 3.65C27.9633 3.38 28.2649 3.17833 28.5883 3.045C28.9116 2.91167 29.2699 2.845 29.6633 2.845C29.9466 2.845 30.1983 2.89167 30.4183 2.985C30.6383 3.07833 30.8233 3.20833 30.9733 3.375C31.1233 3.54167 31.2366 3.74333 31.3133 3.98C31.3899 4.21667 31.4283 4.47667 31.4283 4.76V8ZM29.1183 7.455C29.2749 7.455 29.4183 7.44 29.5483 7.41C29.6783 7.37667 29.7999 7.33167 29.9133 7.275C30.0299 7.215 30.1399 7.14333 30.2433 7.06C30.3499 6.97667 30.4533 6.88167 30.5533 6.775V5.72C30.1433 5.73333 29.7949 5.76667 29.5083 5.82C29.2216 5.87 28.9883 5.93667 28.8083 6.02C28.6283 6.10333 28.4966 6.20167 28.4133 6.315C28.3333 6.42833 28.2933 6.555 28.2933 6.695C28.2933 6.82833 28.3149 6.94333 28.3583 7.04C28.4016 7.13667 28.4599 7.21667 28.5333 7.28C28.6066 7.34 28.6933 7.385 28.7933 7.415C28.8933 7.44167 29.0016 7.455 29.1183 7.455ZM32.8166 8V2.935H33.3466C33.4733 2.935 33.5533 2.99667 33.5866 3.12L33.6566 3.67C33.8766 3.42667 34.1216 3.23 34.3916 3.08C34.665 2.93 34.98 2.855 35.3366 2.855C35.6133 2.855 35.8566 2.90167 36.0666 2.995C36.28 3.085 36.4566 3.215 36.5966 3.385C36.74 3.55167 36.8483 3.75333 36.9216 3.99C36.995 4.22667 37.0316 4.48833 37.0316 4.775V8H36.1416V4.775C36.1416 4.39167 36.0533 4.095 35.8766 3.885C35.7033 3.67167 35.4366 3.565 35.0766 3.565C34.8133 3.565 34.5666 3.62833 34.3366 3.755C34.11 3.88167 33.9 4.05333 33.7066 4.27V8H32.8166ZM41.3133 3.77C41.2733 3.84333 41.2116 3.88 41.1283 3.88C41.0783 3.88 41.0216 3.86167 40.9583 3.825C40.8949 3.78833 40.8166 3.74833 40.7233 3.705C40.6333 3.65833 40.5249 3.61667 40.3983 3.58C40.2716 3.54 40.1216 3.52 39.9483 3.52C39.7983 3.52 39.6633 3.54 39.5433 3.58C39.4233 3.61667 39.3199 3.66833 39.2333 3.735C39.1499 3.80167 39.0849 3.88 39.0383 3.97C38.9949 4.05667 38.9733 4.15167 38.9733 4.255C38.9733 4.385 39.0099 4.49333 39.0833 4.58C39.1599 4.66667 39.2599 4.74167 39.3833 4.805C39.5066 4.86833 39.6466 4.925 39.8033 4.975C39.9599 5.02167 40.1199 5.07333 40.2833 5.13C40.4499 5.18333 40.6116 5.24333 40.7683 5.31C40.9249 5.37667 41.0649 5.46 41.1883 5.56C41.3116 5.66 41.4099 5.78333 41.4833 5.93C41.5599 6.07333 41.5983 6.24667 41.5983 6.45C41.5983 6.68333 41.5566 6.9 41.4733 7.1C41.3899 7.29667 41.2666 7.46833 41.1033 7.615C40.9399 7.75833 40.7399 7.87167 40.5033 7.955C40.2666 8.03833 39.9933 8.08 39.6833 8.08C39.3299 8.08 39.0099 8.02333 38.7233 7.91C38.4366 7.79333 38.1933 7.645 37.9933 7.465L38.2033 7.125C38.2299 7.08167 38.2616 7.04833 38.2983 7.025C38.3349 7.00167 38.3833 6.99 38.4433 6.99C38.5033 6.99 38.5666 7.01333 38.6333 7.06C38.6999 7.10667 38.7799 7.15833 38.8733 7.215C38.9699 7.27167 39.0849 7.32333 39.2183 7.37C39.3549 7.41667 39.5249 7.44 39.7283 7.44C39.9016 7.44 40.0533 7.41833 40.1833 7.375C40.3133 7.32833 40.4216 7.26667 40.5083 7.19C40.5949 7.11333 40.6583 7.025 40.6983 6.925C40.7416 6.825 40.7633 6.71833 40.7633 6.605C40.7633 6.465 40.7249 6.35 40.6483 6.26C40.5749 6.16667 40.4766 6.08833 40.3533 6.025C40.2299 5.95833 40.0883 5.90167 39.9283 5.855C39.7716 5.805 39.6099 5.75333 39.4433 5.7C39.2799 5.64667 39.1183 5.58667 38.9583 5.52C38.8016 5.45 38.6616 5.36333 38.5383 5.26C38.4149 5.15667 38.3149 5.03 38.2383 4.88C38.1649 4.72667 38.1283 4.54167 38.1283 4.325C38.1283 4.13167 38.1683 3.94667 38.2483 3.77C38.3283 3.59 38.4449 3.43333 38.5983 3.3C38.7516 3.16333 38.9399 3.055 39.1633 2.975C39.3866 2.895 39.6416 2.855 39.9283 2.855C40.2616 2.855 40.5599 2.90833 40.8233 3.015C41.0899 3.11833 41.3199 3.26167 41.5133 3.445L41.3133 3.77ZM42.7892 8V0.635H43.6792V3.615C43.8959 3.385 44.1359 3.20167 44.3992 3.065C44.6626 2.925 44.9659 2.855 45.3092 2.855C45.5859 2.855 45.8292 2.90167 46.0392 2.995C46.2526 3.085 46.4292 3.215 46.5692 3.385C46.7126 3.55167 46.8209 3.75333 46.8942 3.99C46.9676 4.22667 47.0042 4.48833 47.0042 4.775V8H46.1142V4.775C46.1142 4.39167 46.0259 4.095 45.8492 3.885C45.6759 3.67167 45.4092 3.565 45.0492 3.565C44.7859 3.565 44.5392 3.62833 44.3092 3.755C44.0826 3.88167 43.8726 4.05333 43.6792 4.27V8H42.7892ZM52.1059 8H51.7109C51.6242 8 51.5542 7.98667 51.5009 7.96C51.4475 7.93333 51.4125 7.87667 51.3959 7.79L51.2959 7.32C51.1625 7.44 51.0325 7.54833 50.9059 7.645C50.7792 7.73833 50.6459 7.81833 50.5059 7.885C50.3659 7.94833 50.2159 7.99667 50.0559 8.03C49.8992 8.06333 49.7242 8.08 49.5309 8.08C49.3342 8.08 49.1492 8.05333 48.9759 8C48.8059 7.94333 48.6575 7.86 48.5309 7.75C48.4042 7.64 48.3025 7.50167 48.2259 7.335C48.1525 7.165 48.1159 6.965 48.1159 6.735C48.1159 6.535 48.1709 6.34333 48.2809 6.16C48.3909 5.97333 48.5675 5.80833 48.8109 5.665C49.0575 5.52167 49.3792 5.405 49.7759 5.315C50.1725 5.22167 50.6575 5.16833 51.2309 5.155V4.76C51.2309 4.36667 51.1459 4.07 50.9759 3.87C50.8092 3.66667 50.5609 3.565 50.2309 3.565C50.0142 3.565 49.8309 3.59333 49.6809 3.65C49.5342 3.70333 49.4059 3.765 49.2959 3.835C49.1892 3.90167 49.0959 3.96333 49.0159 4.02C48.9392 4.07333 48.8625 4.1 48.7859 4.1C48.7259 4.1 48.6725 4.085 48.6259 4.055C48.5825 4.02167 48.5475 3.98167 48.5209 3.935L48.3609 3.65C48.6409 3.38 48.9425 3.17833 49.2659 3.045C49.5892 2.91167 49.9475 2.845 50.3409 2.845C50.6242 2.845 50.8759 2.89167 51.0959 2.985C51.3159 3.07833 51.5009 3.20833 51.6509 3.375C51.8009 3.54167 51.9142 3.74333 51.9909 3.98C52.0675 4.21667 52.1059 4.47667 52.1059 4.76V8ZM49.7959 7.455C49.9525 7.455 50.0959 7.44 50.2259 7.41C50.3559 7.37667 50.4775 7.33167 50.5909 7.275C50.7075 7.215 50.8175 7.14333 50.9209 7.06C51.0275 6.97667 51.1309 6.88167 51.2309 6.775V5.72C50.8209 5.73333 50.4725 5.76667 50.1859 5.82C49.8992 5.87 49.6659 5.93667 49.4859 6.02C49.3059 6.10333 49.1742 6.20167 49.0909 6.315C49.0109 6.42833 48.9709 6.555 48.9709 6.695C48.9709 6.82833 48.9925 6.94333 49.0359 7.04C49.0792 7.13667 49.1375 7.21667 49.2109 7.28C49.2842 7.34 49.3709 7.385 49.4709 7.415C49.5709 7.44167 49.6792 7.455 49.7959 7.455ZM56.3942 3.77C56.3542 3.84333 56.2926 3.88 56.2092 3.88C56.1592 3.88 56.1026 3.86167 56.0392 3.825C55.9759 3.78833 55.8976 3.74833 55.8042 3.705C55.7142 3.65833 55.6059 3.61667 55.4792 3.58C55.3526 3.54 55.2026 3.52 55.0292 3.52C54.8792 3.52 54.7442 3.54 54.6242 3.58C54.5042 3.61667 54.4009 3.66833 54.3142 3.735C54.2309 3.80167 54.1659 3.88 54.1192 3.97C54.0759 4.05667 54.0542 4.15167 54.0542 4.255C54.0542 4.385 54.0909 4.49333 54.1642 4.58C54.2409 4.66667 54.3409 4.74167 54.4642 4.805C54.5876 4.86833 54.7276 4.925 54.8842 4.975C55.0409 5.02167 55.2009 5.07333 55.3642 5.13C55.5309 5.18333 55.6926 5.24333 55.8492 5.31C56.0059 5.37667 56.1459 5.46 56.2692 5.56C56.3926 5.66 56.4909 5.78333 56.5642 5.93C56.6409 6.07333 56.6792 6.24667 56.6792 6.45C56.6792 6.68333 56.6376 6.9 56.5542 7.1C56.4709 7.29667 56.3476 7.46833 56.1842 7.615C56.0209 7.75833 55.8209 7.87167 55.5842 7.955C55.3476 8.03833 55.0742 8.08 54.7642 8.08C54.4109 8.08 54.0909 8.02333 53.8042 7.91C53.5176 7.79333 53.2742 7.645 53.0742 7.465L53.2842 7.125C53.3109 7.08167 53.3426 7.04833 53.3792 7.025C53.4159 7.00167 53.4642 6.99 53.5242 6.99C53.5842 6.99 53.6476 7.01333 53.7142 7.06C53.7809 7.10667 53.8609 7.15833 53.9542 7.215C54.0509 7.27167 54.1659 7.32333 54.2992 7.37C54.4359 7.41667 54.6059 7.44 54.8092 7.44C54.9826 7.44 55.1342 7.41833 55.2642 7.375C55.3942 7.32833 55.5026 7.26667 55.5892 7.19C55.6759 7.11333 55.7392 7.025 55.7792 6.925C55.8226 6.825 55.8442 6.71833 55.8442 6.605C55.8442 6.465 55.8059 6.35 55.7292 6.26C55.6559 6.16667 55.5576 6.08833 55.4342 6.025C55.3109 5.95833 55.1692 5.90167 55.0092 5.855C54.8526 5.805 54.6909 5.75333 54.5242 5.7C54.3609 5.64667 54.1992 5.58667 54.0392 5.52C53.8826 5.45 53.7426 5.36333 53.6192 5.26C53.4959 5.15667 53.3959 5.03 53.3192 4.88C53.2459 4.72667 53.2092 4.54167 53.2092 4.325C53.2092 4.13167 53.2492 3.94667 53.3292 3.77C53.4092 3.59 53.5259 3.43333 53.6792 3.3C53.8326 3.16333 54.0209 3.055 54.2442 2.975C54.4676 2.895 54.7226 2.855 55.0092 2.855C55.3426 2.855 55.6409 2.90833 55.9042 3.015C56.1709 3.11833 56.4009 3.26167 56.5942 3.445L56.3942 3.77ZM59.4052 8.08C59.0052 8.08 58.6968 7.96833 58.4802 7.745C58.2668 7.52167 58.1602 7.2 58.1602 6.78V3.68H57.5502C57.4968 3.68 57.4518 3.665 57.4152 3.635C57.3785 3.60167 57.3602 3.55167 57.3602 3.485V3.13L58.1902 3.025L58.3952 1.46C58.4018 1.41 58.4235 1.37 58.4602 1.34C58.4968 1.30667 58.5435 1.29 58.6002 1.29H59.0502V3.035H60.5002V3.68H59.0502V6.72C59.0502 6.93333 59.1018 7.09167 59.2052 7.195C59.3085 7.29833 59.4418 7.35 59.6052 7.35C59.6985 7.35 59.7785 7.33833 59.8452 7.315C59.9152 7.28833 59.9752 7.26 60.0252 7.23C60.0752 7.2 60.1168 7.17333 60.1502 7.15C60.1868 7.12333 60.2185 7.11 60.2452 7.11C60.2918 7.11 60.3335 7.13833 60.3702 7.195L60.6302 7.62C60.4768 7.76333 60.2918 7.87667 60.0752 7.96C59.8585 8.04 59.6352 8.08 59.4052 8.08ZM61.6406 8V2.935H62.1506C62.2473 2.935 62.314 2.95333 62.3506 2.99C62.3873 3.02667 62.4123 3.09 62.4256 3.18L62.4856 3.97C62.659 3.61667 62.8723 3.34167 63.1256 3.145C63.3823 2.945 63.6823 2.845 64.0256 2.845C64.1656 2.845 64.2923 2.86167 64.4056 2.895C64.519 2.925 64.624 2.96833 64.7206 3.025L64.6056 3.69C64.5823 3.77333 64.5306 3.815 64.4506 3.815C64.404 3.815 64.3323 3.8 64.2356 3.77C64.139 3.73667 64.004 3.72 63.8306 3.72C63.5206 3.72 63.2606 3.81 63.0506 3.99C62.844 4.17 62.6706 4.43167 62.5306 4.775V8H61.6406ZM67.1988 9.495C67.1688 9.56167 67.1305 9.615 67.0838 9.655C67.0405 9.695 66.9722 9.715 66.8788 9.715H66.2188L67.1438 7.705L65.0538 2.935H65.8238C65.9005 2.935 65.9605 2.955 66.0038 2.995C66.0472 3.03167 66.0788 3.07333 66.0988 3.12L67.4538 6.31C67.4838 6.38333 67.5088 6.45667 67.5288 6.53C67.5522 6.60333 67.5722 6.67833 67.5888 6.755C67.6122 6.67833 67.6355 6.60333 67.6588 6.53C67.6822 6.45667 67.7088 6.38167 67.7388 6.305L69.0538 3.12C69.0738 3.06667 69.1072 3.02333 69.1538 2.99C69.2038 2.95333 69.2572 2.935 69.3138 2.935H70.0238L67.1988 9.495Z" fill="black"/>
</svg>
